<?xml version="1.0" encoding="UTF-8" standalone="no"?>
<!-- Created with Inkscape (http://www.inkscape.org/) -->

<svg
   width="253.49689mm"
   height="252.77744mm"
   viewBox="0 0 253.49688 252.77744"
   version="1.1"
   id="svg1"
   xml:space="preserve"
   xmlns:inkscape="http://www.inkscape.org/namespaces/inkscape"
   xmlns:sodipodi="http://sodipodi.sourceforge.net/DTD/sodipodi-0.dtd"
   xmlns="http://www.w3.org/2000/svg"
   xmlns:svg="http://www.w3.org/2000/svg"><sodipodi:namedview
     id="namedview1"
     pagecolor="#ffffff"
     bordercolor="#000000"
     borderopacity="0.25"
     inkscape:showpageshadow="2"
     inkscape:pageopacity="0.0"
     inkscape:pagecheckerboard="0"
     inkscape:deskcolor="#d1d1d1"
     inkscape:document-units="mm"><inkscape:page
       x="0"
       y="0"
       width="253.49689"
       height="252.77744"
       id="page2"
       margin="0"
       bleed="0" /></sodipodi:namedview><defs
     id="defs1" /><g
     inkscape:label="Layer 1"
     inkscape:groupmode="layer"
     id="layer1"
     transform="translate(88.677631,168.17603)"><path
       style="fill:#000000;stroke-width:0.958278"
       d="M 27.263688,80.228353 C 11.003204,78.660602 -3.9066404,74.196682 -18.328612,66.578283 -48.055525,50.875059 -69.116954,24.833892 -78.505556,-7.8268274 c -4.011791,-13.9560946 -5.375487,-27.5407646 -4.254638,-42.3832006 1.843181,-24.407535 11.345683,-48.13503 26.618923,-66.466702 4.262831,-5.11645 11.765714,-12.6711 16.638298,-16.75308 26.387852,-22.1063 61.052508,-31.92975 95.163622,-26.96796 26.675004,3.88013 49.785051,15.54246 68.964041,34.80224 22.99246,23.08929 35.15814,52.424065 35.15814,84.775804 0,16.431563 -2.7342,30.8945081 -8.60556,45.5203306 -1.49293,3.718961 -3.61596,8.2045314 -4.69388,9.9173284 -0.19001,0.301938 -1.35586,-0.584656 -3.96469,-3.015065 -2.03254,-1.8935254 -3.69499,-3.6072594 -3.69433,-3.8082984 6.5e-4,-0.201039 0.98379,-2.8409318 2.18476,-5.8664282 6.09915,-15.3651434 8.63624,-29.6415324 8.18422,-46.0531064 -0.28383,-10.305174 -1.47846,-18.176152 -4.1511,-27.350099 -3.26143,-11.194935 -7.44208,-20.118206 -14.03236,-29.950916 -4.57779,-6.83008 -7.16791,-10.05164 -12.46832,-15.508 -19.158567,-19.72218 -40.491674,-30.18423 -68.120836,-33.40737 -5.520728,-0.64404 -20.530715,-0.52867 -26.030548,0.20007 -24.82692781,3.28963 -45.047686,12.90568 -62.677737,29.80663 -10.45388,10.02155 -17.817689,20.13236 -23.989169,32.938128 -3.709532,7.697222 -6.104498,14.800321 -7.971088,23.640931 -1.82987,8.666728 -2.0375,10.941018 -2.03911,22.335099 -0.0019,11.414479 0.282903,14.641232 2.050417,23.254015 4.910043,23.9256804 17.987543,46.183181 35.973438,61.225634 5.659581,4.733374 6.559567,5.424976 10.479832,8.053316 14.9871733,10.048139 32.0780883,16.353518 49.863712,18.396299 5.559995,0.638597 19.586491,0.542797 25.35443,-0.173169 C 56.75329,68.67544 62.980625,67.48829 67.669272,66.24076 79.31132,63.143108 92.936263,56.616327 103.39749,49.125803 c 8.1581,-5.841412 14.25014,-11.387541 21.65556,-19.715005 l 1.19548,-1.344323 2.67558,2.556239 c 1.47157,1.405932 3.15992,2.842341 3.75188,3.19202 0.59197,0.349681 1.0763,0.77627 1.0763,0.947978 0,1.032876 -10.06947,11.411882 -16.08609,16.580591 -12.51457,10.7509 -27.58757,19.070025 -43.489246,24.002683 -6.406471,1.987271 -16.853963,4.07021 -23.852256,4.755476 -5.814526,0.569352 -17.788514,0.635238 -23.06101,0.126891 z M 133.10514,28.887969 c -1.01676,-0.466694 -3.92544,-3.08112 -9.1276,-8.20419 C 119.77813,16.548211 112.64962,9.5558386 108.13641,5.1451755 l -8.205847,-8.019389 -2.84495,0.824435 C 82.102249,2.2922314 66.978801,0.00619673 53.970354,-8.5670088 50.32423,-10.969984 44.79561,-16.314985 41.667942,-20.460829 c -5.376895,-7.127282 -9.478649,-17.409728 -10.708848,-26.845375 -0.524844,-4.025572 -0.234134,-14.978852 0.503261,-18.961627 2.549202,-13.76863 11.360155,-27.266009 22.836209,-34.982499 3.943668,-2.65171 6.976448,-4.12833 11.720859,-5.70673 12.481256,-4.15233 25.665548,-3.38327 37.620507,2.19446 12.07086,5.631792 21.86065,16.750337 26.51034,30.108536 5.106,14.66917 4.59043,29.963496 -1.46275,43.391522 -2.92271,6.483613 -7.19404,12.582774 -12.15606,17.35804 l -2.42173,2.330589 15.0612,15.1164639 c 8.28365,8.3140561 15.06119,15.3424461 15.06119,15.6186461 0,1.23593 -4.74,7.581861 -6.87855,9.209036 -1.5559,1.183859 -2.53679,1.303393 -4.24843,0.517736 z M 87.98918,-15.425706 c 2.447803,-0.451314 6.538923,-1.805163 8.579253,-2.839078 5.246287,-2.658497 10.573197,-8.463227 13.959167,-15.21132 3.30164,-6.580022 4.42959,-11.945313 4.44189,-21.128692 0.01,-7.461399 -0.41553,-10.296195 -2.40227,-16.003975 -2.98114,-8.564598 -7.41877,-14.629106 -13.706967,-18.732077 -8.24255,-5.378171 -20.068156,-6.263993 -29.079079,-2.178252 -10.113875,4.585857 -17.601259,15.375595 -19.867161,28.629706 -1.913268,11.19142 0.07985,23.107241 5.364037,32.06876 4.97432,8.436013 13.394846,14.324208 22.525468,15.751316 2.302425,0.359867 7.23742,0.187196 10.185662,-0.356388 z m -12.043567,-3.531207 c -1.20778,-0.264646 -2.38795,-0.554847 -2.622601,-0.644891 -0.338289,-0.129814 -0.408587,-4.383494 -0.339478,-20.54137 l 0.08715,-20.377656 h 6.254093 6.254092 v 20.959663 20.959662 l -3.718649,0.06288 c -2.204508,0.03728 -4.612793,-0.133038 -5.914614,-0.418291 z m 14.014602,-0.574254 c -0.08868,-0.232415 -0.121938,-12.744827 -0.0739,-27.805359 l 0.08734,-27.382787 6.338598,-0.09199 6.338607,-0.09199 v 24.110077 24.110075 l -1.26772,1.2114 c -1.965947,1.87861 -5.239487,3.952222 -8.230899,5.213842 -3.119522,1.315648 -2.979461,1.283762 -3.192015,0.726699 z M 66.30951,-23.26526 c -3.44634,-2.509468 -6.566955,-6.254119 -8.724748,-10.469456 l -1.078966,-2.107801 -0.10899,-7.014726 -0.108992,-7.014726 h 5.95112 c 4.45237,0 5.992001,0.106534 6.113448,0.423017 0.08928,0.232661 0.122537,6.551484 0.0739,14.041832 l -0.08842,13.618815 z M -60.293613,-1.9094157 c 0,-0.7177999 16.62723,-46.3984403 28.716852,-78.8949603 1.452619,-3.904579 4.282135,-11.510909 6.287817,-16.902948 2.005682,-5.392046 3.792107,-9.993876 3.969834,-10.226286 0.247622,-0.32382 3.08139,-0.42257 12.1258271,-0.42257 H 2.6094036 l 0.669056,1.56084 c 0.8045345,1.8769 12.3246634,32.677241 18.5723004,49.655101 2.463148,6.69357 5.764583,15.592975 7.336522,19.776456 1.571939,4.183481 3.769171,10.116418 4.882738,13.184304 1.113568,3.067886 2.944391,8.011999 4.068496,10.98692 1.124104,2.974919 2.553408,6.8161155 3.17623,8.5359911 l 1.132404,3.127046 H 31.726188 21.005225 l -4.411909,-11.7475531 -4.41191,-11.747552 -21.5970247,-0.08704 c -11.8783643,-0.04788 -21.7120843,0.02819 -21.8527213,0.16903 -0.22668,0.227017 -3.747536,9.61373 -7.38718,19.6944658 l -1.281591,3.5496197 -10.178251,0.089474 c -7.512658,0.066044 -10.178251,-0.012611 -10.178251,-0.3003358 z M 6.3040263,-41.92657 c 0,-0.09241 -1.3516338,-3.857544 -3.0036298,-8.366962 -1.651996,-4.509419 -5.1756166,-14.170561 -7.8302671,-21.469197 -2.6546506,-7.298636 -4.8628587,-13.231573 -4.9071292,-13.184301 -0.044272,0.04724 -1.5270832,4.041239 -3.2951412,8.875482 -1.768057,4.834242 -5.282102,14.411461 -7.808988,21.282699 -2.526885,6.871239 -4.594338,12.614017 -4.594338,12.761729 0,0.147713 7.073886,0.268569 15.7197467,0.268569 8.64586009,0 15.7197466,-0.07561 15.7197466,-0.168019 z"
       id="path1" /></g></svg>
